<?xml version="1.0" standalone="no"?>
<!DOCTYPE svg PUBLIC "-//W3C//DTD SVG 20010904//EN"
 "http://www.w3.org/TR/2001/REC-SVG-20010904/DTD/svg10.dtd">
<svg version="1.0" xmlns="http://www.w3.org/2000/svg"
 width="512.000000pt" height="512.000000pt" viewBox="0 0 512.000000 512.000000"
 preserveAspectRatio="xMidYMid meet">

<g transform="translate(0.000000,512.000000) scale(0.100000,-0.100000)"
fill="#000000" stroke="none">
<path d="M2455 5106 c-27 -7 -61 -18 -75 -24 -14 -5 -545 -318 -1180 -695
-862 -512 -1161 -694 -1178 -718 -21 -31 -22 -39 -22 -291 0 -205 3 -265 14
-287 29 -54 34 -56 250 -61 l201 -5 3 -1045 2 -1045 -74 -12 c-187 -30 -332
-163 -381 -348 -11 -45 -15 -113 -15 -275 1 -233 3 -246 56 -281 28 -19 74
-19 2504 -19 1994 1 2479 3 2498 14 13 7 32 26 43 42 17 26 19 48 19 244 0
240 -8 291 -62 392 -38 72 -128 157 -203 192 -30 15 -89 32 -130 39 l-75 12 2
1045 3 1045 201 5 c216 5 221 7 250 61 11 22 14 81 14 286 0 234 -2 261 -19
288 -14 24 -285 189 -1182 722 -640 380 -1186 699 -1214 708 -65 23 -186 28
-250 11z m186 -235 c13 -5 524 -306 1134 -669 l1110 -660 3 -141 3 -141 -2331
0 -2331 0 3 141 3 141 925 549 c509 303 1006 598 1104 657 99 59 200 115 225
125 47 18 104 17 152 -2z m-1481 -2891 l0 -1050 -230 0 -230 0 0 1050 0 1050
230 0 230 0 0 -1050z m930 0 l0 -1050 -345 0 -345 0 0 1050 0 1050 345 0 345
0 0 -1050z m700 0 l0 -1050 -230 0 -230 0 0 1050 0 1050 230 0 230 0 0 -1050z
m930 0 l0 -1050 -345 0 -345 0 0 1050 0 1050 345 0 345 0 0 -1050z m700 0 l0
-1050 -230 0 -230 0 0 1050 0 1050 230 0 230 0 0 -1050z m295 -1291 c54 -14
118 -67 148 -123 19 -36 22 -60 25 -188 l4 -148 -2332 0 -2332 0 4 148 c3 119
7 154 22 182 34 66 87 110 156 131 42 12 4254 11 4305 -2z"/>
<path d="M2430 4401 c-115 -37 -202 -101 -259 -189 -182 -284 -17 -657 317
-714 189 -32 389 67 479 237 42 80 55 133 54 224 0 213 -138 392 -346 447 -69
19 -179 16 -245 -5z m238 -240 c111 -57 154 -193 96 -310 -85 -171 -325 -169
-409 3 -50 102 -23 223 66 288 68 51 169 59 247 19z"/>
</g>
</svg>
