<svg width="22" height="22" viewBox="0 0 22 22" fill="none" xmlns="http://www.w3.org/2000/svg">
<path d="M3.48462 0.354004C1.82776 0.354004 0.484619 1.69715 0.484619 3.354V6.354C0.484619 8.01086 1.82776 9.354 3.48462 9.354H6.48462C8.14147 9.354 9.48462 8.01086 9.48462 6.354V3.354C9.48462 1.69715 8.14147 0.354004 6.48462 0.354004H3.48462Z" fill="#013564"/>
<path d="M3.48462 12.354C1.82776 12.354 0.484619 13.6971 0.484619 15.354V18.354C0.484619 20.0109 1.82776 21.354 3.48462 21.354H6.48462C8.14147 21.354 9.48462 20.0109 9.48462 18.354V15.354C9.48462 13.6971 8.14147 12.354 6.48462 12.354H3.48462Z" fill="#013564"/>
<path d="M12.4846 3.354C12.4846 1.69715 13.8278 0.354004 15.4846 0.354004H18.4846C20.1415 0.354004 21.4846 1.69715 21.4846 3.354V6.354C21.4846 8.01086 20.1415 9.354 18.4846 9.354H15.4846C13.8278 9.354 12.4846 8.01086 12.4846 6.354V3.354Z" fill="#013564"/>
<path d="M12.4846 15.354C12.4846 13.6971 13.8278 12.354 15.4846 12.354H18.4846C20.1415 12.354 21.4846 13.6971 21.4846 15.354V18.354C21.4846 20.0109 20.1415 21.354 18.4846 21.354H15.4846C13.8278 21.354 12.4846 20.0109 12.4846 18.354V15.354Z" fill="#013564"/>
</svg>
