<svg width="31" height="31" viewBox="0 0 31 31" fill="none" xmlns="http://www.w3.org/2000/svg">
<path fill-rule="evenodd" clip-rule="evenodd" d="M26.9929 9.637L26.2148 8.28689C25.5566 7.14448 24.0979 6.75038 22.954 7.40588V7.40588C22.4094 7.72666 21.7597 7.81767 21.1479 7.65884C20.5362 7.50001 20.0128 7.10438 19.6931 6.5592C19.4874 6.21267 19.3769 5.81798 19.3727 5.41503V5.41503C19.3913 4.76901 19.1476 4.14299 18.6971 3.67957C18.2466 3.21615 17.6277 2.95481 16.9814 2.95508H15.4139C14.7808 2.95507 14.1737 3.20738 13.7271 3.65616C13.2804 4.10495 13.031 4.71322 13.0341 5.34638V5.34638C13.0153 6.65364 11.9502 7.7035 10.6428 7.70336C10.2398 7.69918 9.84513 7.58866 9.4986 7.383V7.383C8.35464 6.7275 6.89595 7.1216 6.23773 8.264L5.40249 9.637C4.74507 10.778 5.13381 12.2357 6.27206 12.8979V12.8979C7.01194 13.325 7.46772 14.1145 7.46772 14.9688C7.46772 15.8231 7.01194 16.6126 6.27206 17.0397V17.0397C5.13525 17.6974 4.74609 19.1516 5.40249 20.2892V20.2892L6.19196 21.6507C6.50037 22.2072 7.01781 22.6179 7.6298 22.7918C8.24179 22.9657 8.89786 22.8886 9.45283 22.5775V22.5775C9.99841 22.2592 10.6485 22.1719 11.2587 22.3352C11.8689 22.4985 12.3886 22.8988 12.7023 23.4471C12.9079 23.7936 13.0184 24.1883 13.0226 24.5912V24.5912C13.0226 25.9119 14.0933 26.9825 15.4139 26.9825H16.9814C18.2977 26.9826 19.3664 25.9189 19.3727 24.6027V24.6027C19.3697 23.9675 19.6206 23.3575 20.0698 22.9084C20.5189 22.4593 21.1289 22.2083 21.764 22.2114C22.166 22.2221 22.5591 22.3322 22.9082 22.5317V22.5317C24.0492 23.1892 25.507 22.8004 26.1691 21.6622V21.6622L26.9929 20.2892C27.3118 19.7419 27.3993 19.09 27.2361 18.478C27.0728 17.8659 26.6724 17.3442 26.1233 17.0283V17.0283C25.5743 16.7124 25.1738 16.1907 25.0106 15.5787C24.8474 14.9666 24.9349 14.3148 25.2538 13.7674C25.4611 13.4054 25.7613 13.1052 26.1233 12.8979V12.8979C27.2547 12.2361 27.6426 10.7868 26.9929 9.64844V9.64844V9.637Z" stroke="#013564" stroke-width="2" stroke-linecap="round" stroke-linejoin="round"/>
<circle cx="16.2034" cy="14.969" r="3.2952" stroke="#013564" stroke-width="2" stroke-linecap="round" stroke-linejoin="round"/>
</svg>
