<svg width="31" height="31" viewBox="0 0 31 31" fill="none" xmlns="http://www.w3.org/2000/svg">
<path fill-rule="evenodd" clip-rule="evenodd" d="M19.7346 7.77665H12.2346C11.9031 7.77665 11.5852 7.90826 11.3507 8.14253C11.1163 8.37679 10.9846 8.69452 10.9846 9.02582V21.5175C10.9846 21.8488 11.1163 22.1665 11.3507 22.4008C11.5852 22.635 11.9031 22.7667 12.2346 22.7667H19.7346C20.0661 22.7667 20.3841 22.635 20.6185 22.4008C20.8529 22.1665 20.9846 21.8488 20.9846 21.5175V9.02582C20.9846 8.69452 20.8529 8.37679 20.6185 8.14253C20.3841 7.90826 20.0661 7.77665 19.7346 7.77665ZM12.2346 5.27832C11.2401 5.27832 10.2862 5.67315 9.58297 6.37594C8.87971 7.07873 8.48462 8.03192 8.48462 9.02582V21.5175C8.48462 22.5114 8.87971 23.4646 9.58297 24.1674C10.2862 24.8702 11.2401 25.265 12.2346 25.265H19.7346C20.7292 25.265 21.683 24.8702 22.3863 24.1674C23.0895 23.4646 23.4846 22.5114 23.4846 21.5175V9.02582C23.4846 8.03192 23.0895 7.07873 22.3863 6.37594C21.683 5.67315 20.7292 5.27832 19.7346 5.27832H12.2346Z" fill="#013564"/>
<path d="M3.48462 7.77651C3.48462 7.44521 3.61632 7.12748 3.85074 6.89322C4.08516 6.65895 4.4031 6.52734 4.73462 6.52734C5.06614 6.52734 5.38408 6.65895 5.6185 6.89322C5.85292 7.12748 5.98462 7.44521 5.98462 7.77651V22.7665C5.98462 23.0978 5.85292 23.4155 5.6185 23.6498C5.38408 23.8841 5.06614 24.0157 4.73462 24.0157C4.4031 24.0157 4.08516 23.8841 3.85074 23.6498C3.61632 23.4155 3.48462 23.0978 3.48462 22.7665V7.77651ZM25.9846 7.77651C25.9846 7.44521 26.1163 7.12748 26.3507 6.89322C26.5852 6.65895 26.9031 6.52734 27.2346 6.52734C27.5661 6.52734 27.8841 6.65895 28.1185 6.89322C28.3529 7.12748 28.4846 7.44521 28.4846 7.77651V22.7665C28.4846 23.0978 28.3529 23.4155 28.1185 23.6498C27.8841 23.8841 27.5661 24.0157 27.2346 24.0157C26.9031 24.0157 26.5852 23.8841 26.3507 23.6498C26.1163 23.4155 25.9846 23.0978 25.9846 22.7665V7.77651Z" fill="#013564"/>
</svg>
