<svg width="31" height="30" viewBox="0 0 31 30" fill="none" xmlns="http://www.w3.org/2000/svg">
<path fill-rule="evenodd" clip-rule="evenodd" d="M3.45083 2.64394H5.72544V5.67359C5.72544 6.5158 6.11802 7.26035 6.75142 7.77796C7.28638 8.21603 7.99829 8.48742 8.75884 8.48742C9.51997 8.48742 10.2319 8.21603 10.7674 7.77796C11.4002 7.26035 11.7928 6.5158 11.7928 5.67359V2.64394H16.386V5.67359C16.386 6.5158 16.778 7.26035 17.4114 7.77796C17.9463 8.21603 18.6588 8.48742 19.4194 8.48742C20.1799 8.48742 20.8924 8.21603 21.4274 7.77796C22.0608 7.26035 22.4534 6.5158 22.4534 5.67359V2.64394H24.8276C25.5049 2.64394 26.1213 2.92175 26.569 3.36801C27.0167 3.8131 27.2944 4.42897 27.2944 5.10626V13.5425C26.9502 13.4099 26.5984 13.2979 26.2409 13.2074V9.77122H2.03813V24.0907C2.03813 25.1546 2.9106 26.0266 3.97759 26.0266H15.7778C15.9548 26.39 16.156 26.7411 16.3801 27.0777H3.45083C2.77466 27.0777 2.15825 26.801 1.7106 26.3547C1.26235 25.9061 0.984619 25.2914 0.984619 24.6165V5.10567C0.984619 4.42956 1.26235 3.81485 1.70884 3.3686C2.15708 2.92117 2.77407 2.64394 3.45083 2.64394ZM22.4463 27.8339C22.761 27.9175 22.9479 28.2404 22.8641 28.5545C22.7797 28.8685 22.4563 29.0551 22.1422 28.9715C21.8688 28.8985 21.5999 28.8093 21.3372 28.7042C19.8301 28.1024 18.6231 27.018 17.8508 25.6833C16.945 24.1194 16.6379 22.2103 17.1424 20.3294C17.6469 18.449 18.8692 16.95 20.4366 16.0463C22.0028 15.1421 23.9159 14.8351 25.8002 15.3398C26.4588 15.5159 27.0711 15.779 27.6272 16.1136C28.0709 16.3813 28.4835 16.6971 28.8577 17.0552L28.8254 16.7435C28.7926 16.4212 29.027 16.1329 29.3499 16.1001C29.6727 16.0674 29.961 16.3019 29.9944 16.6242L30.1631 18.2513C30.169 18.311 30.1661 18.37 30.1543 18.4262C30.1297 18.718 29.8889 18.952 29.5883 18.9613L27.9506 19.0193C27.6272 19.0292 27.3559 18.7748 27.3459 18.4519C27.336 18.1285 27.5903 17.8583 27.9137 17.8483L27.9793 17.846C27.6875 17.5752 27.3659 17.3325 27.0184 17.1225C26.5543 16.8429 26.044 16.6236 25.4956 16.4768C23.9241 16.0569 22.3309 16.3119 21.0272 17.0634C19.7211 17.8144 18.7034 19.0643 18.2827 20.6329C17.8614 22.2016 18.1163 23.7918 18.8698 25.0943C19.2442 25.743 19.7422 26.3208 20.3422 26.7887C20.9393 27.2555 21.7139 27.6391 22.4463 27.8339ZM23.6985 18.4502H24.8756L24.8475 19.1906C25.3426 19.2216 25.775 19.2707 26.1459 19.3392L25.877 20.7727H24.4866C24.2704 20.7727 24.1262 20.8066 24.0553 20.8745C23.9844 20.9423 23.9458 21.0722 23.9393 21.2628L24.5235 21.3278C25.2342 21.4079 25.7241 21.5898 25.993 21.874C26.2614 22.1577 26.3961 22.5244 26.3961 22.9748C26.3961 23.4251 26.3493 23.7848 26.2567 24.0527C26.1641 24.3206 26.0311 24.5258 25.8583 24.668C25.543 24.9084 25.1293 25.0476 24.6167 25.0844L24.5885 26.0184H23.3926L23.4301 25.0844C22.843 25.0417 22.3456 24.9668 21.9377 24.8621L22.2061 23.3912C22.7194 23.5269 23.2567 23.5947 23.8192 23.5947C24.0541 23.5947 24.2733 23.5824 24.4772 23.5579V23.1689L23.9024 23.104C23.1606 23.0303 22.6667 22.8145 22.4194 22.4566C22.2032 22.1425 22.0954 21.7319 22.0954 21.226C22.0954 20.5604 22.2325 20.0761 22.5079 19.7737C22.7827 19.4714 23.17 19.286 23.6709 19.2187L23.6985 18.4502ZM24.3307 28.0328C23.5122 28.1012 23.6604 29.2709 24.394 29.2101C24.8118 29.1902 25.2665 29.1212 25.6725 29.02C26.426 28.8317 26.1418 27.6871 25.3848 27.8766C25.0362 27.9614 24.6887 28.0111 24.3307 28.0328ZM27.3301 26.9999C26.6938 27.445 27.37 28.4112 28.0069 27.9661C28.352 27.7292 28.7012 27.4327 28.9924 27.1326C29.5274 26.5986 28.7106 25.7471 28.1446 26.3115C27.9102 26.5565 27.6102 26.808 27.3301 26.9999ZM29.3469 24.5416C29.0305 25.2359 30.0987 25.7395 30.4268 25.0189C30.6073 24.6112 30.728 24.2328 30.8405 23.8029C31.0262 23.0631 29.8842 22.7607 29.692 23.5286C29.5901 23.893 29.5016 24.1931 29.3469 24.5416ZM29.8086 21.4003C29.9323 22.1437 30.9846 22.0425 30.9846 21.312L30.9799 21.2482C30.9213 20.8142 30.8329 20.4142 30.7004 19.9954C30.4491 19.2427 29.3352 19.634 29.576 20.3557C29.6838 20.6965 29.7617 21.046 29.8086 21.4003ZM12.5504 18.8397H15.4461C15.0706 19.8375 14.8637 20.9183 14.8637 22.0471C14.8637 22.2571 14.8719 22.4659 14.886 22.6724H12.5504C12.3038 22.6724 12.0999 22.4706 12.0999 22.2238V19.2889C12.0999 19.0421 12.3026 18.8397 12.5504 18.8397ZM12.5504 12.5997H16.0836C16.3315 12.5997 16.5336 12.8026 16.5336 13.0489V15.9832C16.5336 16.2288 16.3303 16.4324 16.0836 16.4324H12.5504C12.3038 16.4324 12.0999 16.23 12.0999 15.9832V13.0489C12.0999 12.8015 12.3026 12.5997 12.5504 12.5997ZM5.42368 12.5997H8.95688C9.20474 12.5997 9.40747 12.8026 9.40747 13.0489V15.9832C9.40747 16.2288 9.20356 16.4324 8.95688 16.4324H5.42368C5.177 16.4324 4.97368 16.23 4.97368 15.9832V13.0489C4.97368 12.8015 5.17642 12.5997 5.42368 12.5997ZM19.6766 12.5997H23.2104C23.4196 12.5997 23.5959 12.7447 23.6463 12.9377C22.0297 12.9986 20.5215 13.4787 19.2266 14.2718V13.0489C19.2266 12.8015 19.4293 12.5997 19.6766 12.5997ZM5.42368 18.8397H8.95688C9.20474 18.8397 9.40747 19.0432 9.40747 19.2889V22.2238C9.40747 22.4694 9.20356 22.6724 8.95688 22.6724H5.42368C5.177 22.6724 4.97368 22.4706 4.97368 22.2238V19.2889C4.97368 19.0421 5.17642 18.8397 5.42368 18.8397ZM18.2288 1.14139C18.2288 0.603893 18.7614 0.166992 19.4194 0.166992C20.078 0.166992 20.6106 0.603893 20.6106 1.14139V5.67359C20.6106 6.21108 20.078 6.64799 19.4194 6.64799C18.7614 6.64799 18.2288 6.21108 18.2288 5.67359V1.14139ZM7.56821 1.14139C7.56821 0.603893 8.10083 0.166992 8.75884 0.166992C9.41743 0.166992 9.95005 0.603893 9.95005 1.14139V5.67359C9.95005 6.21108 9.41743 6.64799 8.75884 6.64799C8.10083 6.64799 7.56821 6.21108 7.56821 5.67359V1.14139Z" fill="#013564"/>
</svg>
