<svg width="24" height="24" viewBox="0 0 24 24" fill="none" xmlns="http://www.w3.org/2000/svg">
<path d="M23.7688 8.83608C22.9108 6.48952 20.1077 5.71383 18.1749 6.99821L15.5857 4.84852C16.2855 2.57616 14.6505 0.0765506 12.1087 0.00281621C9.49088 -0.0731213 7.68413 2.47533 8.41369 4.84547L5.82258 6.99661C3.83077 5.673 0.956345 6.55158 0.180377 8.9843C-0.536436 11.2316 0.974814 13.4343 3.09375 13.8155L4.09627 17.4126C2.30611 18.9539 2.34956 21.9185 4.44633 23.343C6.52355 24.7541 9.2685 23.7382 10.0758 21.552H13.9179C14.7545 23.843 17.6691 24.8019 19.7215 23.2175C21.6982 21.6916 21.5998 18.791 19.8029 17.3348L20.8379 13.8273C23.0595 13.4732 24.6071 11.1287 23.7688 8.83608ZM13.7623 19.49H10.234C9.83991 17.5527 7.94096 16.2394 5.99311 16.5381L5.17327 13.5962C7.16419 12.7951 8.04056 10.4524 7.16649 8.56116L9.54202 6.58904C10.9278 7.79447 13.0565 7.80938 14.4554 6.59063L16.833 8.56458C15.9612 10.4506 16.8365 12.7531 18.7634 13.5707L17.8926 16.5217C15.9646 16.281 14.1494 17.6088 13.7623 19.49Z" fill="#484848"/>
</svg>
