<svg width="16" height="22" viewBox="0 0 16 22" fill="none" xmlns="http://www.w3.org/2000/svg">
<path d="M7.88454 21.2115L7.95273 21.2466L8.0211 21.2118L15.7695 17.2743L15.8516 17.2327V17.1406V0.921875V0.771875H15.7016H0.298462H0.148462V0.921875V17.1406V17.2321L0.229849 17.274L7.88454 21.2115ZM9.75556 8.91523L10.1205 9.17563L9.98574 8.74803L9.33821 6.69378L11.071 5.41071L11.431 5.14415L10.9831 5.14016L8.82737 5.12096L8.14227 3.07457L8.00004 2.64975L7.85779 3.07456L7.17315 5.11908L5.01744 5.13829L4.56953 5.14228L4.92951 5.40883L6.66231 6.69191L6.01478 8.74615L5.88017 9.17319L6.24486 8.91343L8.00042 7.66296L9.75556 8.91523ZM7.84372 13.7349L7.9119 13.77L7.98027 13.7353L12.5867 11.3967L12.6688 11.355V11.263V8.92391V8.67954L12.4509 8.79015L7.91891 11.0908L3.54989 8.84349L3.33127 8.73104V8.97688V11.3206V11.4121L3.41262 11.454L7.84372 13.7349ZM3.54989 12.7168L3.33127 12.6043V12.8502V15.1939V15.2854L3.41267 15.3273L7.84424 17.6064L7.9124 17.6414L7.98074 17.6067L12.5871 15.2681L12.6692 15.2264V15.1344V12.7953V12.5509L12.4513 12.6616L7.91889 14.964L3.54989 12.7168ZM7.9536 20.0659L1.19846 16.5925V1.82187H14.8016V16.591L7.9536 20.0659Z" fill="#484848" stroke="#484848" stroke-width="0.3"/>
</svg>
